#N canvas 770 263 520 392 12;
#X obj 143 20 tgl 15 0 empty empty print 17 7 0 10 #fcfcfc #000000
#000000 0 1;
#N canvas 757 376 418 358 oscreceive 0;
#X obj 47 135 oscparse;
#X obj 47 169 list trim;
#X obj 187 208 spigot;
#X obj 47 279 outlet;
#X obj 225 169 inlet;
#X msg 122 63 listen 8880;
#X msg 47 62 listen 0;
#X obj 47 32 sel 0;
#X obj 47 103 netreceive -u -b;
#X obj 47 -1 inlet;
#X obj 47 243 route devices;
#X obj 47 208 route joyosc;
#X obj 187 243 print osc;
#X obj 187 279 outlet;
#X connect 0 0 1 0;
#X connect 1 0 2 0;
#X connect 1 0 11 0;
#X connect 2 0 12 0;
#X connect 4 0 2 1;
#X connect 5 0 8 0;
#X connect 6 0 8 0;
#X connect 7 0 6 0;
#X connect 7 1 5 0;
#X connect 8 0 0 0;
#X connect 9 0 7 0;
#X connect 10 0 3 0;
#X connect 11 0 10 0;
#X connect 11 1 13 0;
#X coords 0 358 1 357 140 40 0;
#X restore 20 50 pd oscreceive 8880;
#X obj 20 20 tgl 15 0 empty empty poll 17 7 0 10 #fcfcfc #000000 #000000
1 1;
#X floatatom 108 17 0 0 9 0 gc - -;
#X listbox 20 167 18 0 0 0 - - -, f 18;
#X listbox 49 197 18 0 0 0 - - -, f 18;
#X listbox 104 260 40 0 0 0 - data -, f 40;
#X obj 138 110 tgl 15 0 empty empty empty 17 7 0 10 #fcfcfc #000000
#000000 1 1;
#X floatatom 200 170 0 0 0 3 index - -;
#X floatatom 257 170 0 0 0 3 finger - -;
#X listbox 310 171 20 0 0 3 x-y-pressure - -, f 20;
#N canvas 684 485 450 300 touchpad 0;
#X obj 20 129 unpack f f f f f;
#X obj 20 99 t a b;
#X msg 170 130 down;
#X obj 107 99 t a b;
#X msg 220 130 up;
#X obj 74 160 pack f f f;
#X obj 20 20 inlet;
#X obj 20 240 outlet;
#X obj 76 240 outlet;
#X obj 132 240 outlet;
#X obj 209 20 inlet;
#X obj 170 160 spigot;
#X obj 170 189 print touchpad;
#X obj 20 70 route down up xy;
#X connect 0 0 7 0;
#X connect 0 1 8 0;
#X connect 0 2 5 0;
#X connect 0 3 5 1;
#X connect 0 4 5 2;
#X connect 1 0 0 0;
#X connect 1 1 2 0;
#X connect 2 0 11 0;
#X connect 3 0 0 0;
#X connect 3 1 4 0;
#X connect 4 0 11 0;
#X connect 5 0 9 0;
#X connect 6 0 13 0;
#X connect 10 0 11 1;
#X connect 11 0 12 0;
#X connect 13 0 1 0;
#X connect 13 1 3 0;
#X connect 13 2 0 0;
#X restore 220 140 pd touchpad;
#X obj 294 110 tgl 15 0 empty empty empty 17 7 0 10 #fcfcfc #000000
#000000 0 1;
#N canvas 669 262 450 300 motion 0;
#X obj 20 70 spigot;
#X obj 20 20 inlet;
#X obj 80 20 inlet;
#X obj 20 240 gpmotion;
#X obj 20 99 t b a;
#X obj 20 130 symbol gravity;
#X obj 20 189 route gravity;
#X msg 20 159 \$1;
#X obj 115 79 symbol;
#X obj 160 200 route gravity local world player;
#N canvas 739 383 450 300 gravity 0;
#X obj 20 60 t a b;
#X msg 52 91 symbol gravity;
#X obj 52 120 s modesym;
#X obj 20 150 s data;
#X obj 20 20 inlet;
#X connect 0 0 3 0;
#X connect 0 1 1 0;
#X connect 1 0 2 0;
#X connect 4 0 0 0;
#X restore 160 230 pd gravity;
#N canvas 738 383 450 300 local 0;
#X obj 20 60 t a b;
#X obj 52 120 s modesym;
#X obj 20 150 s data;
#X obj 20 20 inlet;
#X msg 52 91 symbol local;
#X connect 0 0 2 0;
#X connect 0 1 4 0;
#X connect 3 0 0 0;
#X connect 4 0 1 0;
#X restore 216 260 pd local;
#N canvas 738 383 450 300 world 0;
#X obj 20 60 t a b;
#X obj 52 120 s modesym;
#X obj 20 150 s data;
#X obj 20 20 inlet;
#X msg 52 91 symbol world;
#X connect 0 0 2 0;
#X connect 0 1 4 0;
#X connect 3 0 0 0;
#X connect 4 0 1 0;
#X restore 270 230 pd world;
#N canvas 737 383 450 300 player 0;
#X obj 20 60 t a b;
#X obj 52 120 s modesym;
#X obj 20 150 s data;
#X obj 20 20 inlet;
#X msg 52 90 symbol player;
#X connect 0 0 2 0;
#X connect 0 1 4 0;
#X connect 3 0 0 0;
#X connect 4 0 1 0;
#X restore 325 260 pd player;
#X obj 115 50 r mode;
#X obj 200 50 r calibrate;
#X obj 200 79 sel 1 0;
#X msg 200 108 start;
#X msg 250 108 stop;
#X obj 300 50 r calibrate-reset;
#X connect 0 0 4 0;
#X connect 1 0 0 0;
#X connect 2 0 0 1;
#X connect 3 0 9 0;
#X connect 4 0 5 0;
#X connect 4 1 3 0;
#X connect 5 0 7 0;
#X connect 6 0 3 0;
#X connect 6 1 3 0;
#X connect 7 0 6 0;
#X connect 8 0 5 1;
#X connect 9 0 10 0;
#X connect 9 1 11 0;
#X connect 9 2 12 0;
#X connect 9 3 13 0;
#X connect 14 0 8 0;
#X connect 15 0 16 0;
#X connect 16 0 17 0;
#X connect 16 1 18 0;
#X connect 17 0 3 0;
#X connect 18 0 3 0;
#X connect 19 0 3 0;
#X restore 78 137 pd motion;
#X msg 410 20 gravity;
#X msg 410 40 local;
#X msg 410 60 world;
#X msg 410 80 player;
#X obj 410 109 s mode;
#X symbolatom 20 260 10 0 0 0 - modesym -, f 10;
#N canvas 0 0 450 300 controller 0;
#X obj 40 80 route gc0;
#X msg 128 81 symbol gc\$1;
#X obj 40 138 list;
#X obj 95 138 list;
#X obj 40 109 route button axis sensor touchpad;
#X obj 13 26 inlet;
#X obj 63 26 inlet;
#X obj 13 211 outlet;
#X obj 69 211 outlet;
#X obj 125 211 outlet;
#X obj 181 211 outlet;
#X connect 0 0 4 0;
#X connect 1 0 0 1;
#X connect 2 0 7 0;
#X connect 3 0 8 0;
#X connect 4 0 2 0;
#X connect 4 1 3 0;
#X connect 4 2 9 0;
#X connect 4 3 10 0;
#X connect 5 0 0 0;
#X connect 6 0 1 0;
#X restore 20 90 pd controller;
#X text 200 50 gyro calibration;
#X obj 211 73 tgl 15 0 empty empty enable 17 7 0 10 #fcfcfc #000000
#000000 0 1;
#X obj 276 73 bng 15 250 50 0 calibrate-reset empty reset 17 7 0 10
#fcfcfc #000000 #000000;
#X text 20 230 motion data: gravity [g=9.81 m/s^2] \, rotation [deg/s]
;
#X connect 0 0 1 1;
#X connect 1 0 20 0;
#X connect 2 0 1 0;
#X connect 3 0 20 1;
#X connect 7 0 13 1;
#X connect 11 0 8 0;
#X connect 11 1 9 0;
#X connect 11 2 10 0;
#X connect 12 0 11 1;
#X connect 14 0 18 0;
#X connect 15 0 18 0;
#X connect 16 0 18 0;
#X connect 17 0 18 0;
#X connect 20 0 4 0;
#X connect 20 1 5 0;
#X connect 20 2 13 0;
#X connect 20 3 11 0;
