#N canvas 768 263 520 328 12;
#X obj 143 20 tgl 15 0 empty empty print 17 7 0 10 #fcfcfc #000000
#000000 0 1;
#N canvas 757 376 418 358 oscreceive 0;
#X obj 47 135 oscparse;
#X obj 47 169 list trim;
#X obj 187 208 spigot;
#X obj 47 279 outlet;
#X obj 225 169 inlet;
#X msg 122 63 listen 8880;
#X msg 47 62 listen 0;
#X obj 47 32 sel 0;
#X obj 47 103 netreceive -u -b;
#X obj 47 -1 inlet;
#X obj 47 243 route devices;
#X obj 47 208 route joyosc;
#X obj 187 243 print osc;
#X obj 187 279 outlet;
#X connect 0 0 1 0;
#X connect 1 0 2 0;
#X connect 1 0 11 0;
#X connect 2 0 12 0;
#X connect 4 0 2 1;
#X connect 5 0 8 0;
#X connect 6 0 8 0;
#X connect 7 0 6 0;
#X connect 7 1 5 0;
#X connect 8 0 0 0;
#X connect 9 0 7 0;
#X connect 10 0 3 0;
#X connect 11 0 10 0;
#X connect 11 1 13 0;
#X coords 0 358 1 357 140 40 0;
#X restore 20 50 pd oscreceive 8880;
#X obj 20 20 tgl 15 0 empty empty poll 17 7 0 10 #fcfcfc #000000 #000000
0 1;
#X floatatom 108 17 0 0 9 0 gc - -;
#X obj 20 79 route gc0;
#X msg 108 80 symbol gc\$1;
#X listbox 20 167 18 0 0 0 - - -, f 18;
#X listbox 75 197 18 0 0 0 - - -, f 18;
#X listbox 134 230 40 0 0 0 accel - -, f 40;
#X obj 20 137 list;
#X obj 75 137 list;
#X listbox 134 260 40 0 0 0 gyro - -, f 40;
#X obj 270 110 tgl 15 0 empty empty empty 17 7 0 10 #fcfcfc #000000
#000000 0 1;
#X floatatom 247 170 0 0 0 3 index - -;
#X floatatom 307 170 0 0 0 3 finger - -;
#X listbox 361 170 20 0 0 3 x-y-pressure - -, f 20;
#N canvas 684 485 450 300 touchpad 0;
#X obj 20 129 unpack f f f f f;
#X obj 20 99 t a b;
#X msg 170 130 down;
#X obj 107 99 t a b;
#X msg 220 130 up;
#X obj 74 160 pack f f f;
#X obj 20 20 inlet;
#X obj 20 240 outlet;
#X obj 76 240 outlet;
#X obj 132 240 outlet;
#X obj 209 20 inlet;
#X obj 170 160 spigot;
#X obj 170 189 print touchpad;
#X obj 20 70 route down up xy;
#X connect 0 0 7 0;
#X connect 0 1 8 0;
#X connect 0 2 5 0;
#X connect 0 3 5 1;
#X connect 0 4 5 2;
#X connect 1 0 0 0;
#X connect 1 1 2 0;
#X connect 2 0 11 0;
#X connect 3 0 0 0;
#X connect 3 1 4 0;
#X connect 4 0 11 0;
#X connect 5 0 9 0;
#X connect 6 0 13 0;
#X connect 10 0 11 1;
#X connect 11 0 12 0;
#X connect 13 0 1 0;
#X connect 13 1 3 0;
#X connect 13 2 0 0;
#X restore 270 140 pd touchpad;
#X obj 344 110 tgl 15 0 empty empty empty 17 7 0 10 #fcfcfc #000000
#000000 0 1;
#X obj 20 108 route button axis sensor touchpad;
#N canvas 738 383 450 300 sensor 0;
#X obj 20 110 route accel gyro;
#X obj 20 139 list;
#X obj 74 139 list;
#X obj 20 70 spigot;
#X obj 20 20 inlet;
#X obj 70 20 inlet;
#X obj 20 210 outlet;
#X obj 74 210 outlet;
#X connect 0 0 1 0;
#X connect 0 1 2 0;
#X connect 1 0 6 0;
#X connect 2 0 7 0;
#X connect 3 0 0 0;
#X connect 4 0 3 0;
#X connect 5 0 3 1;
#X restore 134 137 pd sensor;
#X connect 0 0 1 1;
#X connect 1 0 4 0;
#X connect 2 0 1 0;
#X connect 3 0 5 0;
#X connect 4 0 18 0;
#X connect 5 0 4 1;
#X connect 9 0 6 0;
#X connect 10 0 7 0;
#X connect 12 0 19 1;
#X connect 16 0 13 0;
#X connect 16 1 14 0;
#X connect 16 2 15 0;
#X connect 17 0 16 1;
#X connect 18 0 9 0;
#X connect 18 1 10 0;
#X connect 18 2 19 0;
#X connect 18 3 16 0;
#X connect 19 0 8 0;
#X connect 19 1 11 0;
