#N canvas 2 51 320 90 10;
#N canvas 2 51 382 154 META 0;
#X text 10 10 NAME gpmotion;
#X text 10 30 LICENSE GPL-3+;
#X text 10 50 DESCRIPTION process gamepad motion data with Pd;
#X text 10 90 AUTHOR Albert Gräf;
#X text 10 123 VERSION 0.1.0;
#X restore 43 36 pd META;
#X text 39 15 gpmotion: process gamepad motion data with Pd;
